<svg xmlns="http://www.w3.org/2000/svg" viewBox="0 0 200 200"><g fill="#241773"><path d="M141.9 133.5c-2.3-4-5-7.6-8.2-10.7-3.9-3.9-8.7-6.8-14-8.4-5.3-1.6-11-2-16.7-1-6.1 1-11.8 3.5-16.6 7.4-4.8 3.9-8.5 8.9-10.8 14.7-2.3 5.8-3.1 12.1-2.4 18.2.7 6.1 2.8 11.9 6.2 17 3.4 5.1 8 9.2 13.5 12.2 5.5 3 11.6 4.6 17.8 4.7 6.2.1 12.3-1.2 17.9-3.9 5.6-2.7 10.6-6.6 14.6-11.5 4-4.9 6.9-10.7 8.5-17.1 1.6-6.4 1.8-13.1.5-19.6-.5-2.7-1.3-5.3-2.3-7.9z"/><path d="M100 0C44.8 0 0 44.8 0 100s44.8 100 100 100 100-44.8 100-100S155.2 0 100 0zm0 180c-44.1 0-80-35.9-80-80s35.9-80 80-80 80 35.9 80 80-35.9 80-80 80z"/><path d="M125.7 10.5c-4.4-1.2-9.5-1.5-15-1.1-10.9.8-22.3 4.2-31.9 11.7-9.6 7.5-16.8 18-20.5 30.1-3.7 12.1-3.6 24.8.3 36.8 3.9 12 11.2 22.8 21.1 31.4 9.9 8.6 21.9 14.5 34.8 16.9 12.9 2.4 26.2 1.1 38.1-3.9 11.9-5 22-13.1 29.2-23.4 7.2-10.3 11.2-22.3 11.6-34.7.4-12.4-2.8-24.8-9.2-35.8-6.4-11-15.8-20.1-27.2-26.3-8.8-4.7-18.2-7.5-27.8-8.3z"/></g><path d="M109.9 44.1c-15.4 0-27.9 12.5-27.9 27.9s12.5 27.9 27.9 27.9 27.9-12.5 27.9-27.9-12.5-27.9-27.9-27.9zm0 45.8c-9.9 0-17.9-8-17.9-17.9s8-17.9 17.9-17.9 17.9 8 17.9 17.9-8 17.9-17.9 17.9z" fill="#D5A233"/><text x="40" y="120" font-family="Impact, sans-serif" font-size="80" fill="#D5A233" letter-spacing="0">B</text></svg>