<svg xmlns="http://www.w3.org/2000/svg" viewBox="0 0 200 200"><path d="M 62 2 C 27 2 2 34 2 62 C 2 78 7 93 17 104 C 21 108 26 112 32 116 C 36 120 40 125 43 130 C 47 137 49 145 49 153 C 49 167 44 179 36 188 C 50 196 67 200 84 200 C 141 200 188 153 188 96 C 188 39 141 2 84 2 L 62 2 z" fill="#0076B6"/><path d="M 62 12 C 37 12 12 40 12 62 C 12 75 16 87 24 96 C 28 100 32 104 37 107 C 41 110 44 115 47 119 C 50 125 51 131 51 138 C 51 149 48 159 42 166 C 53 172 65 176 78 176 C 128 176 168 136 168 86 C 168 46 128 12 78 12 L 62 12 z" fill="#FFFFFF"/><path d="M 78 22 C 53 22 22 46 22 62 C 22 72 25 81 31 88 C 35 93 39 96 44 99 C 47 101 50 105 52 108 C 54 112 55 117 55 122 C 55 130 53 137 50 143 C 58 147 66 150 74 150 C 114 150 148 116 148 76 C 148 46 114 22 74 22 L 78 22 z" fill="#C5C7CF"/></svg>