<svg xmlns="http://www.w3.org/2000/svg" viewBox="0 0 200 200"><path fill="#004C54" d="M 20,80 C 40,40 100,20 160,50 L 180,60 C 120,40 80,80 80,120 C 80,160 120,180 160,180 L 140,170 C 100,160 60,140 40,120 L 20,80 Z" /><path fill="#A5ACAF" d="M 25,82 C 45,47 100,27 155,52 L 175,62 C 120,47 85,82 85,120 C 85,155 115,172 150,172 L 135,167 C 95,157 65,137 45,117 L 25,82 Z" /><path fill="#000" d="M 120,70 A 10,10 0 1 1 120,90 A 10,10 0 1 1 120,70" /><path fill="#fff" d="M 30,85 L 50,115 L 70,105 L 50,90 Z" /></svg>